<svg xmlns="http://www.w3.org/2000/svg" xmlns:xlink="http://www.w3.org/1999/xlink" width="500" zoomAndPan="magnify" viewBox="0 0 375 374.999991" height="500" preserveAspectRatio="xMidYMid meet" version="1.0"><defs><g/><clipPath id="b26a1933b9"><path d="M 147.394531 176.425781 L 259.886719 176.425781 L 259.886719 207.925781 L 147.394531 207.925781 Z M 147.394531 176.425781 " clip-rule="nonzero"/></clipPath><clipPath id="e8638040bb"><path d="M 163.054688 176.425781 L 244.222656 176.425781 C 252.875 176.425781 259.886719 183.4375 259.886719 192.089844 C 259.886719 200.738281 252.875 207.75 244.222656 207.75 L 163.054688 207.75 C 154.40625 207.75 147.394531 200.738281 147.394531 192.089844 C 147.394531 183.4375 154.40625 176.425781 163.054688 176.425781 Z M 163.054688 176.425781 " clip-rule="nonzero"/></clipPath></defs><g clip-path="url(#b26a1933b9)"><g clip-path="url(#e8638040bb)"><path stroke-linecap="butt" transform="matrix(0.75, 0, 0, 0.75, 147.393232, 176.426708)" fill="none" stroke-linejoin="miter" d="M 20.881941 -0.00123515 L 129.105907 -0.00123515 C 140.642366 -0.00123515 149.991325 9.347724 149.991325 20.884183 C 149.991325 32.415434 140.642366 41.764393 129.105907 41.764393 L 20.881941 41.764393 C 9.350691 41.764393 0.00173177 32.415434 0.00173177 20.884183 C 0.00173177 9.347724 9.350691 -0.00123515 20.881941 -0.00123515 Z M 20.881941 -0.00123515 " stroke="#000000" stroke-width="10" stroke-opacity="1" stroke-miterlimit="4"/></g></g><g fill="#000000" fill-opacity="1"><g transform="translate(52.151483, 207.749986)"><g><path d="M 33.421875 -14.453125 L 7.015625 -14.453125 C 7.253906 -11.179688 8.515625 -8.535156 10.796875 -6.515625 C 13.078125 -4.492188 15.957031 -3.484375 19.4375 -3.484375 C 21.394531 -3.484375 23.191406 -3.832031 24.828125 -4.53125 C 26.472656 -5.226562 27.894531 -6.257812 29.09375 -7.625 L 31.5 -4.859375 C 30.101562 -3.179688 28.351562 -1.898438 26.25 -1.015625 C 24.144531 -0.140625 21.832031 0.296875 19.3125 0.296875 C 16.070312 0.296875 13.203125 -0.390625 10.703125 -1.765625 C 8.203125 -3.148438 6.253906 -5.0625 4.859375 -7.5 C 3.460938 -9.9375 2.765625 -12.695312 2.765625 -15.78125 C 2.765625 -18.863281 3.429688 -21.625 4.765625 -24.0625 C 6.109375 -26.5 7.945312 -28.394531 10.28125 -29.75 C 12.625 -31.113281 15.257812 -31.796875 18.1875 -31.796875 C 21.101562 -31.796875 23.71875 -31.113281 26.03125 -29.75 C 28.351562 -28.394531 30.175781 -26.503906 31.5 -24.078125 C 32.820312 -21.660156 33.484375 -18.894531 33.484375 -15.78125 Z M 18.1875 -28.140625 C 15.144531 -28.140625 12.59375 -27.164062 10.53125 -25.21875 C 8.46875 -23.28125 7.296875 -20.753906 7.015625 -17.640625 L 29.40625 -17.640625 C 29.125 -20.753906 27.953125 -23.28125 25.890625 -25.21875 C 23.828125 -27.164062 21.257812 -28.140625 18.1875 -28.140625 Z M 18.1875 -28.140625 "/></g></g></g><g fill="#000000" fill-opacity="1"><g transform="translate(88.391452, 207.749986)"><g><path d="M 3.59375 -18.125 L 19.3125 -18.125 L 19.3125 -14.40625 L 3.59375 -14.40625 Z M 3.59375 -18.125 "/></g></g></g><g fill="#000000" fill-opacity="1"><g transform="translate(111.311426, 207.749986)"><g><path d="M 19.015625 0.296875 C 15.898438 0.296875 13.109375 -0.378906 10.640625 -1.734375 C 8.179688 -3.097656 6.253906 -5.007812 4.859375 -7.46875 C 3.460938 -9.925781 2.765625 -12.695312 2.765625 -15.78125 C 2.765625 -18.863281 3.460938 -21.625 4.859375 -24.0625 C 6.253906 -26.5 8.179688 -28.394531 10.640625 -29.75 C 13.109375 -31.113281 15.898438 -31.796875 19.015625 -31.796875 C 21.734375 -31.796875 24.160156 -31.265625 26.296875 -30.203125 C 28.441406 -29.148438 30.132812 -27.601562 31.375 -25.5625 L 28.203125 -23.40625 C 27.160156 -24.957031 25.835938 -26.125 24.234375 -26.90625 C 22.640625 -27.6875 20.898438 -28.078125 19.015625 -28.078125 C 16.734375 -28.078125 14.679688 -27.566406 12.859375 -26.546875 C 11.046875 -25.523438 9.628906 -24.070312 8.609375 -22.1875 C 7.585938 -20.3125 7.078125 -18.175781 7.078125 -15.78125 C 7.078125 -13.34375 7.585938 -11.191406 8.609375 -9.328125 C 9.628906 -7.472656 11.046875 -6.035156 12.859375 -5.015625 C 14.679688 -3.992188 16.734375 -3.484375 19.015625 -3.484375 C 20.898438 -3.484375 22.640625 -3.863281 24.234375 -4.625 C 25.835938 -5.382812 27.160156 -6.539062 28.203125 -8.09375 L 31.375 -5.9375 C 30.132812 -3.894531 28.4375 -2.34375 26.28125 -1.28125 C 24.125 -0.226562 21.703125 0.296875 19.015625 0.296875 Z M 19.015625 0.296875 "/></g></g></g><g fill="#000000" fill-opacity="1"><g transform="translate(256.946942, 207.749986)"><g><path d="M 45.296875 -31.796875 C 49.253906 -31.796875 52.363281 -30.65625 54.625 -28.375 C 56.882812 -26.09375 58.015625 -22.734375 58.015625 -18.296875 L 58.015625 0 L 53.765625 0 L 53.765625 -17.875 C 53.765625 -21.15625 52.972656 -23.65625 51.390625 -25.375 C 49.804688 -27.09375 47.578125 -27.953125 44.703125 -27.953125 C 41.421875 -27.953125 38.835938 -26.941406 36.953125 -24.921875 C 35.078125 -22.910156 34.140625 -20.125 34.140625 -16.5625 L 34.140625 0 L 29.875 0 L 29.875 -17.875 C 29.875 -21.15625 29.082031 -23.65625 27.5 -25.375 C 25.925781 -27.09375 23.679688 -27.953125 20.765625 -27.953125 C 17.523438 -27.953125 14.953125 -26.941406 13.046875 -24.921875 C 11.148438 -22.910156 10.203125 -20.125 10.203125 -16.5625 L 10.203125 0 L 5.9375 0 L 5.9375 -31.5625 L 10.015625 -31.5625 L 10.015625 -25.796875 C 11.140625 -27.722656 12.703125 -29.203125 14.703125 -30.234375 C 16.703125 -31.273438 19 -31.796875 21.59375 -31.796875 C 24.238281 -31.796875 26.53125 -31.234375 28.46875 -30.109375 C 30.40625 -28.992188 31.851562 -27.335938 32.8125 -25.140625 C 33.976562 -27.222656 35.648438 -28.851562 37.828125 -30.03125 C 40.003906 -31.207031 42.492188 -31.796875 45.296875 -31.796875 Z M 45.296875 -31.796875 "/></g></g></g></svg>