<svg xmlns="http://www.w3.org/2000/svg" xmlns:xlink="http://www.w3.org/1999/xlink" width="500" zoomAndPan="magnify" viewBox="0 0 375 374.999991" height="500" preserveAspectRatio="xMidYMid meet" version="1.0"><defs><g/></defs><g fill="#f6f4f0" fill-opacity="1"><g transform="translate(53.740022, 211.385026)"><g><path d="M 28.90625 -57.828125 C 31.019531 -57.828125 33.113281 -57.628906 35.1875 -57.234375 C 37.269531 -56.847656 39.265625 -56.222656 41.171875 -55.359375 C 42.398438 -54.785156 43.671875 -54.007812 44.984375 -53.03125 C 46.296875 -52.0625 47.398438 -50.945312 48.296875 -49.6875 C 49.191406 -48.425781 49.640625 -47.050781 49.640625 -45.5625 C 49.640625 -43.8125 49.0625 -42.359375 47.90625 -41.203125 C 46.75 -40.046875 45.09375 -39.492188 42.9375 -39.546875 C 43.757812 -41.859375 43.953125 -44.039062 43.515625 -46.09375 C 43.078125 -48.15625 42.164062 -49.96875 40.78125 -51.53125 C 39.394531 -53.101562 37.671875 -54.335938 35.609375 -55.234375 C 33.554688 -56.140625 31.320312 -56.59375 28.90625 -56.59375 C 25.15625 -56.59375 21.6875 -55.550781 18.5 -53.46875 C 15.3125 -51.382812 12.675781 -48.566406 10.59375 -45.015625 C 8.519531 -41.472656 7.195312 -37.46875 6.625 -33 C 7.757812 -34.488281 9.109375 -35.5 10.671875 -36.03125 C 12.242188 -36.570312 13.828125 -36.820312 15.421875 -36.78125 C 17.367188 -36.78125 19.242188 -36.429688 21.046875 -35.734375 C 22.847656 -35.035156 24.617188 -34.3125 26.359375 -33.5625 C 28.109375 -32.820312 29.882812 -32.328125 31.6875 -32.078125 C 33.070312 -31.921875 34.457031 -32.046875 35.84375 -32.453125 C 37.238281 -32.867188 38.113281 -33.875 38.46875 -35.46875 C 39.082031 -33.15625 38.988281 -31.25 38.1875 -29.75 C 37.394531 -28.257812 36.175781 -27.207031 34.53125 -26.59375 C 32.894531 -25.976562 31.019531 -25.828125 28.90625 -26.140625 C 27.3125 -26.390625 25.71875 -26.898438 24.125 -27.671875 C 22.53125 -28.441406 20.988281 -29.265625 19.5 -30.140625 C 18.007812 -31.015625 16.546875 -31.757812 15.109375 -32.375 C 13.671875 -32.988281 12.257812 -33.296875 10.875 -33.296875 C 7.894531 -33.203125 6.40625 -31.738281 6.40625 -28.90625 C 6.445312 -23.613281 7.570312 -18.78125 9.78125 -14.40625 C 12 -10.039062 14.878906 -6.703125 18.421875 -4.390625 C 21.148438 -2.640625 23.960938 -1.625 26.859375 -1.34375 C 29.765625 -1.0625 32.617188 -1.382812 35.421875 -2.3125 C 38.222656 -3.238281 40.84375 -4.613281 43.28125 -6.4375 C 45.726562 -8.257812 47.847656 -10.40625 49.640625 -12.875 L 49.640625 -6.40625 C 47.023438 -4.34375 43.929688 -2.757812 40.359375 -1.65625 C 36.785156 -0.550781 32.96875 0 28.90625 0 C 24.945312 0 21.21875 -0.742188 17.71875 -2.234375 C 14.226562 -3.722656 11.160156 -5.789062 8.515625 -8.4375 C 5.867188 -11.082031 3.785156 -14.148438 2.265625 -17.640625 C 0.753906 -21.140625 0 -24.894531 0 -28.90625 C 0 -32.914062 0.742188 -36.664062 2.234375 -40.15625 C 3.722656 -43.65625 5.789062 -46.726562 8.4375 -49.375 C 11.082031 -52.019531 14.148438 -54.085938 17.640625 -55.578125 C 21.140625 -57.078125 24.894531 -57.828125 28.90625 -57.828125 Z M 28.90625 -57.828125 "/></g></g></g><g fill="#f6f4f0" fill-opacity="1"><g transform="translate(105.92677, 211.385026)"><g><path d="M 0 -29.53125 L 23.90625 -29.53125 L 23.90625 -28.296875 L 0 -28.296875 Z M 0 -29.53125 "/></g></g></g><g fill="#f6f4f0" fill-opacity="1"><g transform="translate(133.291835, 211.385026)"><g><path d="M 28.90625 -57.828125 C 31.019531 -57.828125 33.113281 -57.628906 35.1875 -57.234375 C 37.269531 -56.847656 39.265625 -56.222656 41.171875 -55.359375 C 42.398438 -54.785156 43.671875 -54.007812 44.984375 -53.03125 C 46.296875 -52.0625 47.398438 -50.945312 48.296875 -49.6875 C 49.191406 -48.425781 49.640625 -47.050781 49.640625 -45.5625 C 49.640625 -43.8125 49.0625 -42.359375 47.90625 -41.203125 C 46.75 -40.046875 45.09375 -39.492188 42.9375 -39.546875 C 43.757812 -41.859375 43.953125 -44.039062 43.515625 -46.09375 C 43.078125 -48.15625 42.164062 -49.96875 40.78125 -51.53125 C 39.394531 -53.101562 37.671875 -54.335938 35.609375 -55.234375 C 33.554688 -56.140625 31.320312 -56.59375 28.90625 -56.59375 C 25.820312 -56.59375 22.914062 -55.867188 20.1875 -54.421875 C 17.46875 -52.984375 15.066406 -50.992188 12.984375 -48.453125 C 10.910156 -45.910156 9.296875 -42.96875 8.140625 -39.625 C 6.984375 -36.28125 6.40625 -32.707031 6.40625 -28.90625 C 6.40625 -25.363281 6.914062 -22.007812 7.9375 -18.84375 C 8.96875 -15.6875 10.378906 -12.875 12.171875 -10.40625 C 13.972656 -7.9375 16.054688 -5.929688 18.421875 -4.390625 C 21.148438 -2.640625 23.960938 -1.625 26.859375 -1.34375 C 29.765625 -1.0625 32.617188 -1.382812 35.421875 -2.3125 C 38.222656 -3.238281 40.84375 -4.613281 43.28125 -6.4375 C 45.726562 -8.257812 47.847656 -10.40625 49.640625 -12.875 L 49.640625 -6.40625 C 47.023438 -4.34375 43.929688 -2.757812 40.359375 -1.65625 C 36.785156 -0.550781 32.96875 0 28.90625 0 C 24.945312 0 21.21875 -0.742188 17.71875 -2.234375 C 14.226562 -3.722656 11.160156 -5.789062 8.515625 -8.4375 C 5.867188 -11.082031 3.785156 -14.148438 2.265625 -17.640625 C 0.753906 -21.140625 0 -24.894531 0 -28.90625 C 0 -32.914062 0.742188 -36.664062 2.234375 -40.15625 C 3.722656 -43.65625 5.789062 -46.726562 8.4375 -49.375 C 11.082031 -52.019531 14.148438 -54.085938 17.640625 -55.578125 C 21.140625 -57.078125 24.894531 -57.828125 28.90625 -57.828125 Z M 28.90625 -57.828125 "/></g></g></g><g fill="#f6f4f0" fill-opacity="1"><g transform="translate(186.403609, 211.385026)"><g><path d="M 27.984375 -57.828125 C 31.835938 -57.828125 35.457031 -57.078125 38.84375 -55.578125 C 42.238281 -54.085938 45.222656 -52.019531 47.796875 -49.375 C 50.367188 -46.726562 52.375 -43.65625 53.8125 -40.15625 C 55.25 -36.664062 55.96875 -32.914062 55.96875 -28.90625 C 55.96875 -24.894531 55.25 -21.140625 53.8125 -17.640625 C 52.375 -14.148438 50.367188 -11.082031 47.796875 -8.4375 C 45.222656 -5.789062 42.238281 -3.722656 38.84375 -2.234375 C 35.457031 -0.742188 31.835938 0 27.984375 0 C 24.128906 0 20.503906 -0.742188 17.109375 -2.234375 C 13.722656 -3.722656 10.753906 -5.789062 8.203125 -8.4375 C 5.660156 -11.082031 3.65625 -14.148438 2.1875 -17.640625 C 0.726562 -21.140625 0 -24.894531 0 -28.90625 C 0 -32.914062 0.726562 -36.664062 2.1875 -40.15625 C 3.65625 -43.65625 5.660156 -46.726562 8.203125 -49.375 C 10.753906 -52.019531 13.722656 -54.085938 17.109375 -55.578125 C 20.503906 -57.078125 24.128906 -57.828125 27.984375 -57.828125 Z M 27.984375 -56.59375 C 25.003906 -56.59375 22.21875 -55.867188 19.625 -54.421875 C 17.03125 -52.984375 14.742188 -50.992188 12.765625 -48.453125 C 10.785156 -45.910156 9.226562 -42.96875 8.09375 -39.625 C 6.96875 -36.28125 6.40625 -32.707031 6.40625 -28.90625 C 6.40625 -25.050781 6.96875 -21.453125 8.09375 -18.109375 C 9.226562 -14.773438 10.785156 -11.832031 12.765625 -9.28125 C 14.742188 -6.738281 17.03125 -4.75 19.625 -3.3125 C 22.21875 -1.875 25.003906 -1.15625 27.984375 -1.15625 C 30.960938 -1.15625 33.757812 -1.875 36.375 -3.3125 C 39 -4.75 41.300781 -6.738281 43.28125 -9.28125 C 45.257812 -11.832031 46.800781 -14.773438 47.90625 -18.109375 C 49.019531 -21.453125 49.578125 -25.050781 49.578125 -28.90625 C 49.578125 -32.707031 49.019531 -36.28125 47.90625 -39.625 C 46.800781 -42.96875 45.257812 -45.910156 43.28125 -48.453125 C 41.300781 -50.992188 39 -52.984375 36.375 -54.421875 C 33.757812 -55.867188 30.960938 -56.59375 27.984375 -56.59375 Z M 27.984375 -56.59375 "/></g></g></g><g fill="#f6f4f0" fill-opacity="1"><g transform="translate(245.836436, 211.385026)"><g><path d="M 61.59375 0 L 42.328125 -55.96875 C 41.085938 -52.0625 39.890625 -48.164062 38.734375 -44.28125 C 37.578125 -40.40625 36.488281 -36.515625 35.46875 -32.609375 L 46.71875 0 L 39.9375 0 L 32.53125 -21.28125 C 30.9375 -14.488281 29.472656 -7.394531 28.140625 0 L 21.65625 0 L 30.84375 -26.359375 L 20.578125 -55.96875 C 17.753906 -46.820312 15.132812 -37.738281 12.71875 -28.71875 C 10.300781 -19.695312 8.195312 -10.125 6.40625 0 L 0 0 L 19.96875 -57.828125 L 26.75 -57.828125 L 34.234375 -36.234375 L 41.625 -57.828125 L 48.484375 -57.828125 L 68.453125 0 Z M 61.59375 0 "/></g></g></g></svg>