<svg xmlns="http://www.w3.org/2000/svg" xmlns:xlink="http://www.w3.org/1999/xlink" width="500" zoomAndPan="magnify" viewBox="0 0 375 374.999991" height="500" preserveAspectRatio="xMidYMid meet" version="1.0"><defs><g/></defs><g fill="#000000" fill-opacity="1"><g transform="translate(44.434707, 206.707179)"><g><path d="M 3.75 -19.515625 C 2.5 -24.296875 2.515625 -28.960938 3.796875 -33.515625 C 5.085938 -38.078125 7.382812 -42.066406 10.6875 -45.484375 C 14 -48.898438 18.046875 -51.234375 22.828125 -52.484375 C 27.898438 -53.878906 32.675781 -53.914062 37.15625 -52.59375 C 41.644531 -51.269531 45.488281 -49.082031 48.6875 -46.03125 C 51.882812 -42.976562 54.070312 -39.503906 55.25 -35.609375 C 52.601562 -35.609375 49.753906 -35.5 46.703125 -35.28125 C 43.648438 -35.0625 40.875 -34.660156 38.375 -34.078125 C 41.164062 -34.148438 43.609375 -33.523438 45.703125 -32.203125 C 47.796875 -30.878906 49.46875 -29.113281 50.71875 -26.90625 C 51.96875 -24.695312 52.664062 -22.304688 52.8125 -19.734375 C 53.113281 -15.765625 52.304688 -12.328125 50.390625 -9.421875 C 48.484375 -6.523438 45.890625 -4.25 42.609375 -2.59375 C 39.335938 -0.9375 35.753906 0.015625 31.859375 0.265625 C 27.960938 0.523438 24.101562 -0.00390625 20.28125 -1.328125 C 16.46875 -2.648438 13.085938 -4.796875 10.140625 -7.765625 C 7.203125 -10.742188 5.070312 -14.660156 3.75 -19.515625 Z M 10.25 -27.453125 C 10.46875 -25.398438 10.800781 -23.414062 11.25 -21.5 C 12.71875 -16.207031 14.847656 -12.050781 17.640625 -9.03125 C 20.429688 -6.019531 23.519531 -3.984375 26.90625 -2.921875 C 30.289062 -1.859375 33.65625 -1.617188 37 -2.203125 C 40.34375 -2.796875 43.300781 -4.046875 45.875 -5.953125 C 48.445312 -7.867188 50.28125 -10.3125 51.375 -13.28125 C 52.476562 -16.257812 52.484375 -19.585938 51.390625 -23.265625 C 50.578125 -25.984375 49.140625 -28.257812 47.078125 -30.09375 C 45.023438 -31.9375 42.488281 -32.984375 39.46875 -33.234375 C 36.457031 -33.492188 33.113281 -32.5625 29.4375 -30.4375 C 26.789062 -28.894531 24.195312 -27.8125 21.65625 -27.1875 C 19.125 -26.5625 16.796875 -26.320312 14.671875 -26.46875 C 13.929688 -26.539062 13.175781 -26.648438 12.40625 -26.796875 C 11.632812 -26.941406 10.914062 -27.160156 10.25 -27.453125 Z M 46.75 -36.171875 C 45.351562 -39.328125 43.476562 -42.265625 41.125 -44.984375 C 38.769531 -47.703125 36.066406 -49.738281 33.015625 -51.09375 C 29.972656 -52.457031 26.648438 -52.664062 23.046875 -51.71875 C 19.734375 -50.832031 17.101562 -49.15625 15.15625 -46.6875 C 13.207031 -44.226562 11.863281 -41.363281 11.125 -38.09375 C 10.394531 -34.820312 10.101562 -31.570312 10.25 -28.34375 C 11.5 -27.75 12.972656 -27.378906 14.671875 -27.234375 C 16.722656 -27.160156 18.976562 -27.414062 21.4375 -28 C 23.90625 -28.59375 26.425781 -29.625 29 -31.09375 C 32.007812 -32.851562 35.09375 -34.101562 38.25 -34.84375 C 41.414062 -35.582031 44.25 -36.023438 46.75 -36.171875 Z M 46.75 -36.171875 "/></g></g></g><g fill="#000000" fill-opacity="1"><g transform="translate(99.675426, 206.707179)"><g><path d="M 3.3125 -39.359375 L 34.515625 -39.359375 L 34.515625 -38.265625 L 3.3125 -38.265625 Z M 3.3125 -39.359375 "/></g></g></g><g fill="#000000" fill-opacity="1"><g transform="translate(134.738268, 206.707179)"><g><path d="M 49.84375 -37.484375 C 48.375 -40.941406 46.257812 -43.972656 43.5 -46.578125 C 40.738281 -49.191406 37.613281 -51.015625 34.125 -52.046875 C 30.632812 -53.078125 26.941406 -52.96875 23.046875 -51.71875 C 19.960938 -50.90625 17.460938 -49.394531 15.546875 -47.1875 C 13.640625 -44.988281 12.257812 -42.398438 11.40625 -39.421875 C 10.5625 -36.441406 10.15625 -33.390625 10.1875 -30.265625 C 10.226562 -27.140625 10.582031 -24.21875 11.25 -21.5 L 11.578125 -20.515625 C 13.117188 -15.210938 15.378906 -11.109375 18.359375 -8.203125 C 21.335938 -5.304688 24.585938 -3.414062 28.109375 -2.53125 C 31.640625 -1.65625 35.078125 -1.617188 38.421875 -2.421875 C 41.765625 -3.234375 44.648438 -4.738281 47.078125 -6.9375 C 49.503906 -9.144531 51.085938 -11.832031 51.828125 -15 L 52.59375 -15 C 51.9375 -11.6875 50.46875 -8.875 48.1875 -6.5625 C 45.90625 -4.25 43.128906 -2.503906 39.859375 -1.328125 C 36.585938 -0.148438 33.113281 0.398438 29.4375 0.328125 C 25.757812 0.253906 22.191406 -0.476562 18.734375 -1.875 C 15.285156 -3.269531 12.238281 -5.4375 9.59375 -8.375 C 6.945312 -11.320312 5 -15.035156 3.75 -19.515625 C 2.5 -24.296875 2.515625 -28.960938 3.796875 -33.515625 C 5.085938 -38.078125 7.40625 -42.066406 10.75 -45.484375 C 14.09375 -48.898438 18.15625 -51.234375 22.9375 -52.484375 C 26.3125 -53.367188 29.597656 -53.695312 32.796875 -53.46875 C 35.992188 -53.25 38.914062 -52.71875 41.5625 -51.875 C 44.21875 -51.03125 46.460938 -50.164062 48.296875 -49.28125 C 50.128906 -48.40625 51.34375 -47.785156 51.9375 -47.421875 L 52.375 -47.421875 L 50.828125 -37.265625 Z M 49.84375 -37.484375 "/></g></g></g><g fill="#000000" fill-opacity="1"><g transform="translate(187.332712, 206.707179)"><g><path d="M 3.75 -20.171875 C 2.5 -24.953125 2.515625 -29.617188 3.796875 -34.171875 C 5.085938 -38.734375 7.382812 -42.722656 10.6875 -46.140625 C 14 -49.566406 18.046875 -51.898438 22.828125 -53.140625 C 27.679688 -54.472656 32.382812 -54.492188 36.9375 -53.203125 C 41.5 -51.921875 45.488281 -49.625 48.90625 -46.3125 C 52.320312 -43 54.65625 -38.921875 55.90625 -34.078125 C 57.226562 -29.296875 57.226562 -24.625 55.90625 -20.0625 C 54.582031 -15.507812 52.265625 -11.539062 48.953125 -8.15625 C 45.648438 -4.78125 41.609375 -2.429688 36.828125 -1.109375 C 32.046875 0.140625 27.359375 0.140625 22.765625 -1.109375 C 18.171875 -2.359375 14.179688 -4.65625 10.796875 -8 C 7.421875 -11.34375 5.070312 -15.398438 3.75 -20.171875 Z M 48.40625 -32.09375 C 47.664062 -34.738281 46.523438 -37.4375 44.984375 -40.1875 C 43.441406 -42.945312 41.550781 -45.390625 39.3125 -47.515625 C 37.070312 -49.648438 34.570312 -51.195312 31.8125 -52.15625 C 29.050781 -53.113281 26.128906 -53.1875 23.046875 -52.375 C 19.960938 -51.5625 17.484375 -50.035156 15.609375 -47.796875 C 13.734375 -45.554688 12.351562 -42.960938 11.46875 -40.015625 C 10.582031 -37.078125 10.140625 -34.03125 10.140625 -30.875 C 10.140625 -27.71875 10.507812 -24.8125 11.25 -22.15625 C 11.976562 -19.507812 13.113281 -16.804688 14.65625 -14.046875 C 16.207031 -11.296875 18.101562 -8.851562 20.34375 -6.71875 C 22.582031 -4.59375 25.082031 -3.03125 27.84375 -2.03125 C 30.601562 -1.039062 33.523438 -0.988281 36.609375 -1.875 C 39.691406 -2.6875 42.1875 -4.210938 44.09375 -6.453125 C 46.007812 -8.691406 47.390625 -11.28125 48.234375 -14.21875 C 49.085938 -17.164062 49.515625 -20.21875 49.515625 -23.375 C 49.515625 -26.539062 49.144531 -29.445312 48.40625 -32.09375 Z M 48.40625 -32.09375 "/></g></g></g><g fill="#000000" fill-opacity="1"><g transform="translate(244.227366, 206.707179)"><g><path d="M 81.046875 -32.640625 L 81.046875 -9.484375 C 81.046875 -5.878906 81.394531 -3.5625 82.09375 -2.53125 C 82.789062 -1.507812 83.285156 -1 83.578125 -1 L 83.578125 0 L 70.796875 0 L 70.796875 -1 C 71.160156 -1 71.671875 -1.507812 72.328125 -2.53125 C 72.992188 -3.5625 73.328125 -5.878906 73.328125 -9.484375 L 73.328125 -32.640625 C 73.328125 -33.960938 73.253906 -35.539062 73.109375 -37.375 C 72.960938 -39.21875 72.648438 -41.078125 72.171875 -42.953125 C 71.691406 -44.828125 70.992188 -46.476562 70.078125 -47.90625 C 69.160156 -49.34375 67.925781 -50.316406 66.375 -50.828125 C 64.320312 -51.566406 62.359375 -51.382812 60.484375 -50.28125 C 58.609375 -49.175781 56.972656 -47.703125 55.578125 -45.859375 C 54.179688 -44.023438 53.078125 -42.265625 52.265625 -40.578125 C 50.648438 -37.117188 49.363281 -32.816406 48.40625 -27.671875 C 47.445312 -22.523438 46.96875 -16.460938 46.96875 -9.484375 C 46.96875 -5.878906 47.316406 -3.5625 48.015625 -2.53125 C 48.710938 -1.507812 49.210938 -1 49.515625 -1 L 49.515625 0 L 36.71875 0 L 36.71875 -1 C 37.082031 -1 37.59375 -1.507812 38.25 -2.53125 C 38.914062 -3.5625 39.25 -5.878906 39.25 -9.484375 L 39.25 -32.640625 C 39.25 -33.960938 39.175781 -35.539062 39.03125 -37.375 C 38.882812 -39.21875 38.570312 -41.078125 38.09375 -42.953125 C 37.613281 -44.828125 36.914062 -46.476562 36 -47.90625 C 35.082031 -49.34375 33.851562 -50.316406 32.3125 -50.828125 C 30.25 -51.566406 28.28125 -51.382812 26.40625 -50.28125 C 24.53125 -49.175781 22.894531 -47.703125 21.5 -45.859375 C 20.101562 -44.023438 19 -42.265625 18.1875 -40.578125 C 16.570312 -37.117188 15.285156 -32.816406 14.328125 -27.671875 C 13.378906 -22.523438 12.90625 -16.460938 12.90625 -9.484375 C 12.90625 -5.878906 13.253906 -3.5625 13.953125 -2.53125 C 14.648438 -1.507812 15.144531 -1 15.4375 -1 L 15.4375 0 L 2.75 0 L 2.75 -1 C 3.125 -1 3.640625 -1.507812 4.296875 -2.53125 C 4.960938 -3.5625 5.296875 -5.878906 5.296875 -9.484375 L 5.296875 -43.671875 C 5.296875 -47.265625 4.960938 -49.578125 4.296875 -50.609375 C 3.640625 -51.640625 3.125 -52.15625 2.75 -52.15625 L 2.75 -53.140625 L 12.90625 -53.140625 L 12.90625 -24.59375 C 13.414062 -27.96875 14.035156 -31.015625 14.765625 -33.734375 C 15.503906 -36.460938 16.351562 -38.890625 17.3125 -41.015625 C 18.269531 -43.078125 19.460938 -45.0625 20.890625 -46.96875 C 22.328125 -48.882812 24 -50.46875 25.90625 -51.71875 C 27.820312 -52.96875 29.992188 -53.59375 32.421875 -53.59375 C 35.429688 -53.59375 37.890625 -52.984375 39.796875 -51.765625 C 41.710938 -50.554688 43.1875 -48.921875 44.21875 -46.859375 C 45.25 -44.804688 45.960938 -42.546875 46.359375 -40.078125 C 46.765625 -37.617188 46.96875 -35.140625 46.96875 -32.640625 L 46.96875 -24.59375 C 47.414062 -27.96875 48.023438 -31.015625 48.796875 -33.734375 C 49.566406 -36.460938 50.429688 -38.890625 51.390625 -41.015625 C 52.335938 -43.078125 53.507812 -45.0625 54.90625 -46.96875 C 56.300781 -48.882812 57.972656 -50.46875 59.921875 -51.71875 C 61.867188 -52.96875 64.054688 -53.59375 66.484375 -53.59375 C 70.535156 -53.59375 73.585938 -52.539062 75.640625 -50.4375 C 77.703125 -48.34375 79.117188 -45.675781 79.890625 -42.4375 C 80.660156 -39.207031 81.046875 -35.941406 81.046875 -32.640625 Z M 81.046875 -32.640625 "/></g></g></g></svg>