<svg xmlns="http://www.w3.org/2000/svg" xmlns:xlink="http://www.w3.org/1999/xlink" width="450" zoomAndPan="magnify" viewBox="0 0 337.5 149.999998" height="200" preserveAspectRatio="xMidYMid meet" version="1.0"><defs><g/><clipPath id="b9dbf9cbd6"><path d="M 0 0.109375 L 337 0.109375 L 337 149.886719 L 0 149.886719 Z M 0 0.109375 " clip-rule="nonzero"/></clipPath><clipPath id="977fc6af5b"><rect x="0" width="324" y="0" height="126"/></clipPath></defs><g clip-path="url(#b9dbf9cbd6)"><path fill="#ffffff" d="M 0 0.109375 L 337 0.109375 L 337 149.890625 L 0 149.890625 Z M 0 0.109375 " fill-opacity="1" fill-rule="nonzero"/><path fill="#222222" d="M 0 0.109375 L 337 0.109375 L 337 149.890625 L 0 149.890625 Z M 0 0.109375 " fill-opacity="1" fill-rule="nonzero"/></g><g transform="matrix(1, 0, 0, 1, 6, 12)"><g clip-path="url(#977fc6af5b)"><g fill="#f6e9cf" fill-opacity="1"><g transform="translate(0.257402, 93.829541)"><g><path d="M 4.25 -22.140625 C 2.832031 -27.554688 2.851562 -32.847656 4.3125 -38.015625 C 5.769531 -43.179688 8.375 -47.703125 12.125 -51.578125 C 15.875 -55.453125 20.460938 -58.097656 25.890625 -59.515625 C 31.640625 -61.097656 37.054688 -61.140625 42.140625 -59.640625 C 47.222656 -58.140625 51.578125 -55.660156 55.203125 -52.203125 C 58.828125 -48.742188 61.3125 -44.804688 62.65625 -40.390625 C 59.644531 -40.390625 56.410156 -40.265625 52.953125 -40.015625 C 49.492188 -39.765625 46.347656 -39.304688 43.515625 -38.640625 C 46.679688 -38.722656 49.453125 -38.015625 51.828125 -36.515625 C 54.203125 -35.015625 56.097656 -33.015625 57.515625 -30.515625 C 58.929688 -28.015625 59.722656 -25.304688 59.890625 -22.390625 C 60.222656 -17.878906 59.304688 -13.976562 57.140625 -10.6875 C 54.972656 -7.394531 52.035156 -4.8125 48.328125 -2.9375 C 44.617188 -1.0625 40.554688 0.0195312 36.140625 0.3125 C 31.722656 0.601562 27.34375 0 23 -1.5 C 18.664062 -3 14.832031 -5.4375 11.5 -8.8125 C 8.164062 -12.1875 5.75 -16.628906 4.25 -22.140625 Z M 11.625 -31.140625 C 11.875 -28.804688 12.25 -26.554688 12.75 -24.390625 C 14.414062 -18.378906 16.832031 -13.664062 20 -10.25 C 23.175781 -6.832031 26.679688 -4.519531 30.515625 -3.3125 C 34.347656 -2.101562 38.160156 -1.832031 41.953125 -2.5 C 45.742188 -3.164062 49.097656 -4.582031 52.015625 -6.75 C 54.929688 -8.914062 57.015625 -11.6875 58.265625 -15.0625 C 59.515625 -18.4375 59.515625 -22.210938 58.265625 -26.390625 C 57.347656 -29.472656 55.722656 -32.054688 53.390625 -34.140625 C 51.054688 -36.222656 48.179688 -37.410156 44.765625 -37.703125 C 41.347656 -37.992188 37.554688 -36.929688 33.390625 -34.515625 C 30.390625 -32.765625 27.445312 -31.535156 24.5625 -30.828125 C 21.6875 -30.117188 19.039062 -29.847656 16.625 -30.015625 C 15.789062 -30.097656 14.9375 -30.222656 14.0625 -30.390625 C 13.1875 -30.554688 12.375 -30.804688 11.625 -31.140625 Z M 53.015625 -41.015625 C 51.429688 -44.597656 49.304688 -47.929688 46.640625 -51.015625 C 43.972656 -54.097656 40.910156 -56.410156 37.453125 -57.953125 C 33.992188 -59.492188 30.222656 -59.722656 26.140625 -58.640625 C 22.378906 -57.640625 19.394531 -55.742188 17.1875 -52.953125 C 14.976562 -50.160156 13.457031 -46.910156 12.625 -43.203125 C 11.789062 -39.492188 11.457031 -35.804688 11.625 -32.140625 C 13.039062 -31.472656 14.707031 -31.054688 16.625 -30.890625 C 18.957031 -30.804688 21.519531 -31.097656 24.3125 -31.765625 C 27.113281 -32.429688 29.972656 -33.597656 32.890625 -35.265625 C 36.304688 -37.265625 39.804688 -38.679688 43.390625 -39.515625 C 46.972656 -40.347656 50.179688 -40.847656 53.015625 -41.015625 Z M 53.015625 -41.015625 "/></g></g></g><g fill="#f6e9cf" fill-opacity="1"><g transform="translate(62.903051, 93.829541)"><g><path d="M 3.75 -44.640625 L 39.140625 -44.640625 L 39.140625 -43.390625 L 3.75 -43.390625 Z M 3.75 -44.640625 "/></g></g></g><g fill="#f6e9cf" fill-opacity="1"><g transform="translate(102.66601, 93.829541)"><g><path d="M 56.515625 -42.515625 C 54.847656 -46.429688 52.453125 -49.867188 49.328125 -52.828125 C 46.203125 -55.785156 42.660156 -57.847656 38.703125 -59.015625 C 34.742188 -60.179688 30.554688 -60.054688 26.140625 -58.640625 C 22.640625 -57.722656 19.800781 -56.015625 17.625 -53.515625 C 15.457031 -51.015625 13.894531 -48.078125 12.9375 -44.703125 C 11.976562 -41.328125 11.519531 -37.867188 11.5625 -34.328125 C 11.601562 -30.785156 12 -27.472656 12.75 -24.390625 L 13.125 -23.265625 C 14.875 -17.253906 17.4375 -12.601562 20.8125 -9.3125 C 24.195312 -6.019531 27.890625 -3.875 31.890625 -2.875 C 35.890625 -1.875 39.785156 -1.832031 43.578125 -2.75 C 47.367188 -3.664062 50.640625 -5.375 53.390625 -7.875 C 56.140625 -10.375 57.929688 -13.414062 58.765625 -17 L 59.640625 -17 C 58.890625 -13.25 57.222656 -10.0625 54.640625 -7.4375 C 52.054688 -4.8125 48.910156 -2.832031 45.203125 -1.5 C 41.492188 -0.164062 37.554688 0.457031 33.390625 0.375 C 29.222656 0.289062 25.175781 -0.539062 21.25 -2.125 C 17.332031 -3.707031 13.875 -6.164062 10.875 -9.5 C 7.875 -12.832031 5.664062 -17.046875 4.25 -22.140625 C 2.832031 -27.554688 2.851562 -32.847656 4.3125 -38.015625 C 5.769531 -43.179688 8.394531 -47.703125 12.1875 -51.578125 C 15.976562 -55.453125 20.585938 -58.097656 26.015625 -59.515625 C 29.847656 -60.515625 33.578125 -60.890625 37.203125 -60.640625 C 40.828125 -60.390625 44.140625 -59.785156 47.140625 -58.828125 C 50.140625 -57.867188 52.679688 -56.890625 54.765625 -55.890625 C 56.847656 -54.890625 58.222656 -54.179688 58.890625 -53.765625 L 59.390625 -53.765625 L 57.640625 -42.265625 Z M 56.515625 -42.515625 "/></g></g></g><g fill="#f6e9cf" fill-opacity="1"><g transform="translate(162.310657, 93.829541)"><g><path d="M 4.25 -22.890625 C 2.832031 -28.304688 2.851562 -33.597656 4.3125 -38.765625 C 5.769531 -43.929688 8.375 -48.453125 12.125 -52.328125 C 15.875 -56.203125 20.460938 -58.847656 25.890625 -60.265625 C 31.390625 -61.773438 36.722656 -61.796875 41.890625 -60.328125 C 47.054688 -58.867188 51.578125 -56.265625 55.453125 -52.515625 C 59.328125 -48.765625 61.976562 -44.140625 63.40625 -38.640625 C 64.90625 -33.222656 64.898438 -27.925781 63.390625 -22.75 C 61.890625 -17.582031 59.265625 -13.082031 55.515625 -9.25 C 51.765625 -5.414062 47.179688 -2.75 41.765625 -1.25 C 36.347656 0.164062 31.03125 0.164062 25.8125 -1.25 C 20.601562 -2.664062 16.082031 -5.269531 12.25 -9.0625 C 8.414062 -12.851562 5.75 -17.460938 4.25 -22.890625 Z M 54.890625 -36.390625 C 54.054688 -39.390625 52.765625 -42.453125 51.015625 -45.578125 C 49.265625 -48.703125 47.117188 -51.472656 44.578125 -53.890625 C 42.035156 -56.304688 39.203125 -58.054688 36.078125 -59.140625 C 32.953125 -60.222656 29.640625 -60.304688 26.140625 -59.390625 C 22.640625 -58.472656 19.820312 -56.742188 17.6875 -54.203125 C 15.5625 -51.660156 14 -48.722656 13 -45.390625 C 12 -42.054688 11.5 -38.597656 11.5 -35.015625 C 11.5 -31.429688 11.914062 -28.140625 12.75 -25.140625 C 13.582031 -22.128906 14.875 -19.0625 16.625 -15.9375 C 18.375 -12.8125 20.519531 -10.039062 23.0625 -7.625 C 25.613281 -5.207031 28.453125 -3.4375 31.578125 -2.3125 C 34.703125 -1.1875 38.015625 -1.125 41.515625 -2.125 C 45.015625 -3.039062 47.847656 -4.769531 50.015625 -7.3125 C 52.179688 -9.851562 53.742188 -12.789062 54.703125 -16.125 C 55.660156 -19.46875 56.140625 -22.929688 56.140625 -26.515625 C 56.140625 -30.097656 55.722656 -33.390625 54.890625 -36.390625 Z M 54.890625 -36.390625 "/></g></g></g><g fill="#f6e9cf" fill-opacity="1"><g transform="translate(226.831948, 93.829541)"><g><path d="M 91.90625 -37.015625 L 91.90625 -10.75 C 91.90625 -6.664062 92.300781 -4.039062 93.09375 -2.875 C 93.882812 -1.707031 94.445312 -1.125 94.78125 -1.125 L 94.78125 0 L 80.28125 0 L 80.28125 -1.125 C 80.695312 -1.125 81.28125 -1.707031 82.03125 -2.875 C 82.78125 -4.039062 83.15625 -6.664062 83.15625 -10.75 L 83.15625 -37.015625 C 83.15625 -38.515625 83.070312 -40.304688 82.90625 -42.390625 C 82.738281 -44.472656 82.382812 -46.578125 81.84375 -48.703125 C 81.300781 -50.828125 80.507812 -52.703125 79.46875 -54.328125 C 78.425781 -55.953125 77.03125 -57.054688 75.28125 -57.640625 C 72.945312 -58.472656 70.71875 -58.265625 68.59375 -57.015625 C 66.46875 -55.765625 64.609375 -54.097656 63.015625 -52.015625 C 61.429688 -49.929688 60.179688 -47.929688 59.265625 -46.015625 C 57.429688 -42.097656 55.972656 -37.222656 54.890625 -31.390625 C 53.804688 -25.554688 53.265625 -18.675781 53.265625 -10.75 C 53.265625 -6.664062 53.660156 -4.039062 54.453125 -2.875 C 55.242188 -1.707031 55.804688 -1.125 56.140625 -1.125 L 56.140625 0 L 41.640625 0 L 41.640625 -1.125 C 42.054688 -1.125 42.640625 -1.707031 43.390625 -2.875 C 44.140625 -4.039062 44.515625 -6.664062 44.515625 -10.75 L 44.515625 -37.015625 C 44.515625 -38.515625 44.429688 -40.304688 44.265625 -42.390625 C 44.097656 -44.472656 43.742188 -46.578125 43.203125 -48.703125 C 42.660156 -50.828125 41.867188 -52.703125 40.828125 -54.328125 C 39.785156 -55.953125 38.390625 -57.054688 36.640625 -57.640625 C 34.304688 -58.472656 32.078125 -58.265625 29.953125 -57.015625 C 27.828125 -55.765625 25.972656 -54.097656 24.390625 -52.015625 C 22.804688 -49.929688 21.550781 -47.929688 20.625 -46.015625 C 18.789062 -42.097656 17.332031 -37.222656 16.25 -31.390625 C 15.164062 -25.554688 14.625 -18.675781 14.625 -10.75 C 14.625 -6.664062 15.019531 -4.039062 15.8125 -2.875 C 16.601562 -1.707031 17.164062 -1.125 17.5 -1.125 L 17.5 0 L 3.125 0 L 3.125 -1.125 C 3.539062 -1.125 4.125 -1.707031 4.875 -2.875 C 5.625 -4.039062 6 -6.664062 6 -10.75 L 6 -49.515625 C 6 -53.597656 5.625 -56.222656 4.875 -57.390625 C 4.125 -58.554688 3.539062 -59.140625 3.125 -59.140625 L 3.125 -60.265625 L 14.625 -60.265625 L 14.625 -27.890625 C 15.207031 -31.722656 15.914062 -35.179688 16.75 -38.265625 C 17.582031 -41.347656 18.539062 -44.097656 19.625 -46.515625 C 20.71875 -48.847656 22.078125 -51.097656 23.703125 -53.265625 C 25.328125 -55.429688 27.222656 -57.222656 29.390625 -58.640625 C 31.554688 -60.054688 34.015625 -60.765625 36.765625 -60.765625 C 40.179688 -60.765625 42.972656 -60.078125 45.140625 -58.703125 C 47.304688 -57.328125 48.972656 -55.472656 50.140625 -53.140625 C 51.304688 -50.804688 52.117188 -48.242188 52.578125 -45.453125 C 53.035156 -42.660156 53.265625 -39.847656 53.265625 -37.015625 L 53.265625 -27.890625 C 53.765625 -31.722656 54.453125 -35.179688 55.328125 -38.265625 C 56.203125 -41.347656 57.179688 -44.097656 58.265625 -46.515625 C 59.347656 -48.847656 60.679688 -51.097656 62.265625 -53.265625 C 63.859375 -55.429688 65.757812 -57.222656 67.96875 -58.640625 C 70.175781 -60.054688 72.65625 -60.765625 75.40625 -60.765625 C 79.988281 -60.765625 83.445312 -59.578125 85.78125 -57.203125 C 88.113281 -54.828125 89.71875 -51.804688 90.59375 -48.140625 C 91.46875 -44.472656 91.90625 -40.765625 91.90625 -37.015625 Z M 91.90625 -37.015625 "/></g></g></g></g></g></svg>