<svg xmlns="http://www.w3.org/2000/svg" xmlns:xlink="http://www.w3.org/1999/xlink" width="450" zoomAndPan="magnify" viewBox="0 0 337.5 149.999998" height="200" preserveAspectRatio="xMidYMid meet" version="1.0"><defs><g/><clipPath id="e88bef3cc0"><path d="M 0 0.109375 L 337 0.109375 L 337 149.886719 L 0 149.886719 Z M 0 0.109375 " clip-rule="nonzero"/></clipPath><clipPath id="6770ba3beb"><rect x="0" width="334" y="0" height="130"/></clipPath></defs><g clip-path="url(#e88bef3cc0)"><path fill="#ffffff" d="M 0 0.109375 L 337 0.109375 L 337 149.890625 L 0 149.890625 Z M 0 0.109375 " fill-opacity="1" fill-rule="nonzero"/><path fill="#ffffff" d="M 0 0.109375 L 337 0.109375 L 337 149.890625 L 0 149.890625 Z M 0 0.109375 " fill-opacity="1" fill-rule="nonzero"/></g><g transform="matrix(1, 0, 0, 1, 0, 10)"><g clip-path="url(#6770ba3beb)"><g fill="#000000" fill-opacity="1"><g transform="translate(1.142297, 95.989336)"><g><path d="M 4.390625 -22.828125 C 2.921875 -28.421875 2.9375 -33.878906 4.4375 -39.203125 C 5.945312 -44.535156 8.632812 -49.203125 12.5 -53.203125 C 16.375 -57.203125 21.109375 -59.929688 26.703125 -61.390625 C 32.628906 -63.023438 38.210938 -63.066406 43.453125 -61.515625 C 48.703125 -59.972656 53.195312 -57.414062 56.9375 -53.84375 C 60.6875 -50.28125 63.25 -46.21875 64.625 -41.65625 C 61.53125 -41.65625 58.195312 -41.523438 54.625 -41.265625 C 51.050781 -41.015625 47.804688 -40.546875 44.890625 -39.859375 C 48.148438 -39.941406 51.003906 -39.207031 53.453125 -37.65625 C 55.910156 -36.113281 57.867188 -34.050781 59.328125 -31.46875 C 60.796875 -28.894531 61.613281 -26.101562 61.78125 -23.09375 C 62.125 -18.445312 61.175781 -14.425781 58.9375 -11.03125 C 56.707031 -7.632812 53.675781 -4.96875 49.84375 -3.03125 C 46.019531 -1.09375 41.828125 0.0234375 37.265625 0.328125 C 32.710938 0.628906 28.203125 0.00390625 23.734375 -1.546875 C 19.265625 -3.097656 15.304688 -5.613281 11.859375 -9.09375 C 8.421875 -12.570312 5.929688 -17.148438 4.390625 -22.828125 Z M 12 -32.109375 C 12.25 -29.703125 12.632812 -27.382812 13.15625 -25.15625 C 14.875 -18.957031 17.363281 -14.09375 20.625 -10.5625 C 23.894531 -7.039062 27.507812 -4.65625 31.46875 -3.40625 C 35.425781 -2.164062 39.359375 -1.890625 43.265625 -2.578125 C 47.179688 -3.265625 50.644531 -4.722656 53.65625 -6.953125 C 56.664062 -9.191406 58.816406 -12.050781 60.109375 -15.53125 C 61.398438 -19.019531 61.398438 -22.914062 60.109375 -27.21875 C 59.160156 -30.394531 57.484375 -33.054688 55.078125 -35.203125 C 52.671875 -37.359375 49.703125 -38.585938 46.171875 -38.890625 C 42.648438 -39.191406 38.738281 -38.09375 34.4375 -35.59375 C 31.34375 -33.789062 28.3125 -32.523438 25.34375 -31.796875 C 22.375 -31.066406 19.644531 -30.785156 17.15625 -30.953125 C 16.289062 -31.035156 15.40625 -31.160156 14.5 -31.328125 C 13.601562 -31.503906 12.769531 -31.765625 12 -32.109375 Z M 54.6875 -42.3125 C 53.050781 -46.007812 50.859375 -49.445312 48.109375 -52.625 C 45.359375 -55.800781 42.195312 -58.1875 38.625 -59.78125 C 35.0625 -61.375 31.171875 -61.613281 26.953125 -60.5 C 23.085938 -59.46875 20.015625 -57.507812 17.734375 -54.625 C 15.453125 -51.738281 13.878906 -48.382812 13.015625 -44.5625 C 12.160156 -40.738281 11.820312 -36.9375 12 -33.15625 C 13.457031 -32.457031 15.175781 -32.023438 17.15625 -31.859375 C 19.5625 -31.773438 22.203125 -32.078125 25.078125 -32.765625 C 27.960938 -33.453125 30.910156 -34.65625 33.921875 -36.375 C 37.453125 -38.4375 41.0625 -39.894531 44.75 -40.75 C 48.445312 -41.613281 51.757812 -42.132812 54.6875 -42.3125 Z M 54.6875 -42.3125 "/></g></g></g><g fill="#000000" fill-opacity="1"><g transform="translate(65.756727, 95.989336)"><g><path d="M 3.875 -46.046875 L 40.375 -46.046875 L 40.375 -44.75 L 3.875 -44.75 Z M 3.875 -46.046875 "/></g></g></g><g fill="#000000" fill-opacity="1"><g transform="translate(106.769356, 95.989336)"><g><path d="M 58.296875 -43.859375 C 56.578125 -47.898438 54.101562 -51.445312 50.875 -54.5 C 47.65625 -57.550781 44.003906 -59.675781 39.921875 -60.875 C 35.835938 -62.082031 31.515625 -61.957031 26.953125 -60.5 C 23.347656 -59.550781 20.425781 -57.785156 18.1875 -55.203125 C 15.945312 -52.617188 14.332031 -49.585938 13.34375 -46.109375 C 12.351562 -42.628906 11.878906 -39.0625 11.921875 -35.40625 C 11.972656 -31.75 12.382812 -28.332031 13.15625 -25.15625 L 13.546875 -23.984375 C 15.347656 -17.796875 17.988281 -13.003906 21.46875 -9.609375 C 24.957031 -6.210938 28.765625 -4 32.890625 -2.96875 C 37.015625 -1.9375 41.03125 -1.890625 44.9375 -2.828125 C 48.851562 -3.773438 52.226562 -5.539062 55.0625 -8.125 C 57.90625 -10.707031 59.757812 -13.847656 60.625 -17.546875 L 61.53125 -17.546875 C 60.75 -13.671875 59.023438 -10.378906 56.359375 -7.671875 C 53.703125 -4.960938 50.457031 -2.921875 46.625 -1.546875 C 42.800781 -0.171875 38.738281 0.472656 34.4375 0.390625 C 30.132812 0.304688 25.960938 -0.550781 21.921875 -2.1875 C 17.878906 -3.820312 14.3125 -6.359375 11.21875 -9.796875 C 8.125 -13.242188 5.847656 -17.585938 4.390625 -22.828125 C 2.921875 -28.421875 2.9375 -33.878906 4.4375 -39.203125 C 5.945312 -44.535156 8.65625 -49.203125 12.5625 -53.203125 C 16.476562 -57.203125 21.234375 -59.929688 26.828125 -61.390625 C 30.785156 -62.421875 34.632812 -62.804688 38.375 -62.546875 C 42.113281 -62.296875 45.53125 -61.675781 48.625 -60.6875 C 51.71875 -59.695312 54.335938 -58.6875 56.484375 -57.65625 C 58.640625 -56.625 60.0625 -55.894531 60.75 -55.46875 L 61.265625 -55.46875 L 59.46875 -43.59375 Z M 58.296875 -43.859375 "/></g></g></g><g fill="#000000" fill-opacity="1"><g transform="translate(168.288467, 95.989336)"><g><path d="M 4.390625 -23.609375 C 2.921875 -29.191406 2.9375 -34.648438 4.4375 -39.984375 C 5.945312 -45.316406 8.632812 -49.984375 12.5 -53.984375 C 16.375 -57.984375 21.109375 -60.710938 26.703125 -62.171875 C 32.378906 -63.722656 37.878906 -63.742188 43.203125 -62.234375 C 48.535156 -60.734375 53.203125 -58.046875 57.203125 -54.171875 C 61.203125 -50.304688 63.929688 -45.535156 65.390625 -39.859375 C 66.941406 -34.265625 66.941406 -28.800781 65.390625 -23.46875 C 63.847656 -18.144531 61.140625 -13.503906 57.265625 -9.546875 C 53.398438 -5.585938 48.671875 -2.835938 43.078125 -1.296875 C 37.492188 0.171875 32.015625 0.175781 26.640625 -1.28125 C 21.265625 -2.75 16.597656 -5.4375 12.640625 -9.34375 C 8.679688 -13.257812 5.929688 -18.015625 4.390625 -23.609375 Z M 56.625 -37.53125 C 55.757812 -40.625 54.425781 -43.785156 52.625 -47.015625 C 50.820312 -50.242188 48.609375 -53.101562 45.984375 -55.59375 C 43.359375 -58.082031 40.429688 -59.882812 37.203125 -61 C 33.984375 -62.125 30.566406 -62.210938 26.953125 -61.265625 C 23.347656 -60.316406 20.445312 -58.53125 18.25 -55.90625 C 16.0625 -53.289062 14.445312 -50.257812 13.40625 -46.8125 C 12.375 -43.375 11.859375 -39.804688 11.859375 -36.109375 C 11.859375 -32.410156 12.289062 -29.015625 13.15625 -25.921875 C 14.019531 -22.828125 15.351562 -19.664062 17.15625 -16.4375 C 18.957031 -13.21875 21.171875 -10.359375 23.796875 -7.859375 C 26.421875 -5.367188 29.34375 -3.539062 32.5625 -2.375 C 35.789062 -1.21875 39.210938 -1.15625 42.828125 -2.1875 C 46.429688 -3.132812 49.351562 -4.921875 51.59375 -7.546875 C 53.832031 -10.171875 55.441406 -13.203125 56.421875 -16.640625 C 57.410156 -20.078125 57.90625 -23.644531 57.90625 -27.34375 C 57.90625 -31.039062 57.476562 -34.4375 56.625 -37.53125 Z M 56.625 -37.53125 "/></g></g></g><g fill="#000000" fill-opacity="1"><g transform="translate(234.837462, 95.989336)"><g><path d="M 94.796875 -38.171875 L 94.796875 -11.09375 C 94.796875 -6.875 95.203125 -4.160156 96.015625 -2.953125 C 96.835938 -1.753906 97.421875 -1.15625 97.765625 -1.15625 L 97.765625 0 L 82.8125 0 L 82.8125 -1.15625 C 83.238281 -1.15625 83.835938 -1.753906 84.609375 -2.953125 C 85.390625 -4.160156 85.78125 -6.875 85.78125 -11.09375 L 85.78125 -38.171875 C 85.78125 -39.722656 85.691406 -41.570312 85.515625 -43.71875 C 85.347656 -45.875 84.984375 -48.046875 84.421875 -50.234375 C 83.859375 -52.429688 83.039062 -54.367188 81.96875 -56.046875 C 80.894531 -57.722656 79.457031 -58.863281 77.65625 -59.46875 C 75.238281 -60.320312 72.929688 -60.101562 70.734375 -58.8125 C 68.546875 -57.519531 66.632812 -55.800781 65 -53.65625 C 63.375 -51.507812 62.085938 -49.445312 61.140625 -47.46875 C 59.242188 -43.425781 57.738281 -38.394531 56.625 -32.375 C 55.507812 -26.351562 54.953125 -19.257812 54.953125 -11.09375 C 54.953125 -6.875 55.359375 -4.160156 56.171875 -2.953125 C 56.984375 -1.753906 57.5625 -1.15625 57.90625 -1.15625 L 57.90625 0 L 42.953125 0 L 42.953125 -1.15625 C 43.378906 -1.15625 43.976562 -1.753906 44.75 -2.953125 C 45.53125 -4.160156 45.921875 -6.875 45.921875 -11.09375 L 45.921875 -38.171875 C 45.921875 -39.722656 45.832031 -41.570312 45.65625 -43.71875 C 45.488281 -45.875 45.125 -48.046875 44.5625 -50.234375 C 44 -52.429688 43.179688 -54.367188 42.109375 -56.046875 C 41.035156 -57.722656 39.597656 -58.863281 37.796875 -59.46875 C 35.390625 -60.320312 33.085938 -60.101562 30.890625 -58.8125 C 28.703125 -57.519531 26.789062 -55.800781 25.15625 -53.65625 C 23.519531 -51.507812 22.226562 -49.445312 21.28125 -47.46875 C 19.382812 -43.425781 17.878906 -38.394531 16.765625 -32.375 C 15.648438 -26.351562 15.09375 -19.257812 15.09375 -11.09375 C 15.09375 -6.875 15.5 -4.160156 16.3125 -2.953125 C 17.132812 -1.753906 17.71875 -1.15625 18.0625 -1.15625 L 18.0625 0 L 3.21875 0 L 3.21875 -1.15625 C 3.65625 -1.15625 4.257812 -1.753906 5.03125 -2.953125 C 5.800781 -4.160156 6.1875 -6.875 6.1875 -11.09375 L 6.1875 -51.078125 C 6.1875 -55.285156 5.800781 -57.992188 5.03125 -59.203125 C 4.257812 -60.410156 3.65625 -61.015625 3.21875 -61.015625 L 3.21875 -62.171875 L 15.09375 -62.171875 L 15.09375 -28.765625 C 15.695312 -32.722656 16.425781 -36.289062 17.28125 -39.46875 C 18.144531 -42.644531 19.132812 -45.484375 20.25 -47.984375 C 21.363281 -50.390625 22.757812 -52.707031 24.4375 -54.9375 C 26.113281 -57.175781 28.070312 -59.023438 30.3125 -60.484375 C 32.550781 -61.953125 35.085938 -62.6875 37.921875 -62.6875 C 41.441406 -62.6875 44.320312 -61.976562 46.5625 -60.5625 C 48.800781 -59.144531 50.519531 -57.226562 51.71875 -54.8125 C 52.925781 -52.40625 53.765625 -49.757812 54.234375 -46.875 C 54.710938 -44 54.953125 -41.097656 54.953125 -38.171875 L 54.953125 -28.765625 C 55.460938 -32.722656 56.171875 -36.289062 57.078125 -39.46875 C 57.984375 -42.644531 58.992188 -45.484375 60.109375 -47.984375 C 61.222656 -50.390625 62.597656 -52.707031 64.234375 -54.9375 C 65.867188 -57.175781 67.820312 -59.023438 70.09375 -60.484375 C 72.375 -61.953125 74.9375 -62.6875 77.78125 -62.6875 C 82.507812 -62.6875 86.078125 -61.457031 88.484375 -59 C 90.890625 -56.550781 92.539062 -53.4375 93.4375 -49.65625 C 94.34375 -45.875 94.796875 -42.046875 94.796875 -38.171875 Z M 94.796875 -38.171875 "/></g></g></g></g></g></svg>